<?xml version="1.0" standalone="no"?><!DOCTYPE svg PUBLIC "-//W3C//DTD SVG 1.1//EN" "http://www.w3.org/Graphics/SVG/1.1/DTD/svg11.dtd"><svg t="1499286928310" class="icon" style="" viewBox="0 0 1024 1024" version="1.1" xmlns="http://www.w3.org/2000/svg" p-id="2547" xmlns:xlink="http://www.w3.org/1999/xlink" width="200" height="200"><defs><style type="text/css"></style></defs><path d="M511.99693 89.99057c-236.087996 0-428.146197 192.057177-428.146197 428.146197 0 236.094136 192.057177 428.151313 428.146197 428.151313 236.094136 0 428.151313-192.057177 428.151313-428.151313C940.148243 282.047748 748.091066 89.99057 511.99693 89.99057zM549.785581 825.630047l0 36.069497-13.616112 0-48.338938 0L474.214419 861.699544l0-35.002189c-124.437104-6.271844-186.650027-69.436442-186.650027-189.435467l127.755686 0c0 56.009641 19.638269 88.654132 58.894342 97.918124L474.214419 576.11525c-128.720663-24.74866-188.660824-86.078471-179.744757-184.004781 8.816806-95.119381 68.7672-153.022139 179.744757-173.752276L474.214419 174.579107l13.616112 0 48.338938 0 13.616112 0 0 43.187615c115.207905 16.518209 172.839487 74.619488 172.839487 174.343747L594.868359 392.110469c-3.989871-47.50699-19.001773-76.245522-45.082778-86.319971l0 165.052127c124.387985 26.78504 178.463578 75.778894 178.463578 185.989995C728.249159 762.539126 663.10958 811.044864 549.785581 825.630047z" p-id="2548" fill="#8a8a8a"></path><path d="M549.785581 594.222653l0 140.582829c30.321586-8.251941 46.50108-31.556717 48.535413-69.919443C598.320994 632.373555 582.134337 608.79965 549.785581 594.222653z" p-id="2549" fill="#8a8a8a"></path><path d="M432.584276 385.204176c-2.032286 32.277124 11.833513 53.956889 41.629119 65.002456L474.213395 304.838823C448.438359 312.954665 434.530604 339.730495 432.584276 385.204176z" p-id="2550" fill="#8a8a8a"></path></svg>